<?xml version="1.0" encoding="utf-8"?>
<svg width="2000px" height="366px" viewBox="0 0 2000 366" version="1.1" xmlns:xlink="http://www.w3.org/1999/xlink" xmlns="http://www.w3.org/2000/svg">
  <defs>
    <path d="M2000 0L2000 0L2000 366L0 366L0 0L2000 0Z" id="path_1" />
    <path d="M177 0L177 0L177 177L0 177L0 0L177 0Z" id="path_2" />
    <clipPath id="clip_1">
      <use xlink:href="#path_1" clip-rule="evenodd" fill-rule="evenodd" />
    </clipPath>
    <clipPath id="clip_2">
      <use xlink:href="#path_2" clip-rule="evenodd" fill-rule="evenodd" />
    </clipPath>
  </defs>
  <g id="0">
    <path d="M2000 0L2000 0L2000 366L0 366L0 0L2000 0Z" id="0" fill="#222222" stroke="none" />
    <g id="Group" transform="translate(95 95)" clip-path="url(#clip_1)">
      <g id="Circle" clip-path="url(#clip_2)" fill-opacity="1">
        <path d="M177 0L177 0L177 177L0 177L0 0L177 0Z" id="Circle" fill="none" stroke="none" />
        <path d="M25 88C25 53.2061 53.2061 25 88 25C122.794 25 151 53.2061 151 88C151 122.794 122.794 151 88 151C53.2061 151 25 122.794 25 88Z" id="Oval" fill="none" fill-rule="evenodd" stroke="#00AAFF" stroke-width="17" />
      </g>
      <g id="可以" transform="translate(177 107)">
        <g transform="translate(0, 13.824)" id="可以" fill="#FFFFFF">
          <path d="M35.856 19.824L39.6 19.824L39.6 54.336Q39.6 56.256 39.048 57.288Q38.496 58.32 37.056 58.8Q35.664 59.28 33.144 59.352Q30.624 59.424 27.024 59.424Q26.928 58.896 26.664 58.2Q26.4 57.504 26.112 56.784Q25.824 56.064 25.536 55.536Q27.456 55.632 29.304 55.656C30.536 55.672 31.608 55.68 32.52 55.68Q33.888 55.68 34.464 55.68Q35.232 55.584 35.544 55.32Q35.856 55.056 35.856 54.288L35.856 19.824ZM7.584 29.424L11.088 29.424L11.088 51.216L7.584 51.216L7.584 29.424ZM9.072 29.424L27.264 29.424L27.264 47.376L9.072 47.376L9.072 43.92L23.712 43.92L23.712 32.88L9.072 32.88L9.072 29.424ZM2.688 18.768L45.504 18.768L45.504 22.368L2.688 22.368L2.688 18.768ZM65.52 22.896L68.736 21.36Q70.32 23.088 71.808 25.152Q73.296 27.216 74.496 29.208Q75.696 31.2 76.368 32.88L72.912 34.704Q72.288 33.072 71.136 30.984Q69.984 28.896 68.496 26.784Q67.008 24.672 65.52 22.896ZM49.728 50.544Q52.176 49.584 55.416 48.24Q58.656 46.896 62.28 45.336Q65.904 43.776 69.504 42.24L70.32 45.744Q67.008 47.232 63.552 48.768Q60.096 50.304 56.88 51.72Q53.664 53.136 51.024 54.288L49.728 50.544ZM78.528 44.256L81.312 41.856Q82.992 43.584 84.888 45.504Q86.784 47.424 88.608 49.416Q90.432 51.408 92.016 53.232Q93.6 55.056 94.608 56.544L91.536 59.376Q90.528 57.888 89.04 56.016Q87.552 54.144 85.752 52.104Q83.952 50.064 82.104 48.024Q80.256 45.984 78.528 44.256ZM85.152 17.808L89.088 18.192Q88.176 26.544 86.496 33.072Q84.816 39.6 82.008 44.616Q79.2 49.632 74.856 53.328Q70.512 57.024 64.224 59.664Q63.984 59.28 63.456 58.68Q62.928 58.08 62.352 57.504Q61.776 56.928 61.344 56.544Q67.584 54.24 71.784 50.856Q75.984 47.472 78.672 42.744Q81.36 38.016 82.872 31.848Q84.384 25.68 85.152 17.808ZM55.536 17.952L59.232 17.808L60.096 49.536L56.4 49.68L55.536 17.952Z" />
        </g>
      </g>
      <g id="You-can" transform="translate(177 0)">
        <g transform="translate(0, 23.400002)" id="You-can" fill="#FFFFFF">
          <path d="M27.18 64.62L2.61 27.54L12.42 27.54L32.22 57.87L27.81 57.87L47.7 27.54L57.33 27.54L32.58 64.62L27.18 64.62ZM25.74 90L25.74 59.04L34.2 59.04L34.2 90L25.74 90ZM72.09 90.9Q65.79 90.9 60.75 87.93Q55.71 84.96 52.74 79.875Q49.77 74.79 49.77 68.49Q49.77 62.28 52.74 57.285Q55.71 52.29 60.75 49.32Q65.79 46.35 72.09 46.35Q78.3 46.35 83.385 49.275Q88.47 52.2 91.44 57.24Q94.41 62.28 94.41 68.49Q94.41 74.79 91.44 79.875Q88.47 84.96 83.385 87.93Q78.3 90.9 72.09 90.9ZM72.09 83.07Q76.14 83.07 79.29 81.18Q82.44 79.29 84.24 76.005Q86.04 72.72 86.04 68.49Q86.04 64.35 84.195 61.11Q82.35 57.87 79.245 56.025Q76.14 54.18 72.09 54.18Q68.04 54.18 64.89 56.025Q61.74 57.87 59.94 61.11Q58.14 64.35 58.14 68.49Q58.14 72.72 59.94 76.005Q61.74 79.29 64.89 81.18Q68.04 83.07 72.09 83.07ZM120.78 90.9Q115.47 90.9 111.285 88.515Q107.1 86.13 104.76 81.9Q102.42 77.67 102.42 72.09L102.42 47.25L110.52 47.25L110.52 71.73Q110.52 75.24 111.735 77.805Q112.95 80.37 115.29 81.72Q117.63 83.07 120.78 83.07Q125.55 83.07 128.25 80.055Q130.95 77.04 130.95 71.73L130.95 47.25L139.05 47.25L139.05 72.09Q139.05 77.67 136.71 81.9Q134.37 86.13 130.275 88.515Q126.18 90.9 120.78 90.9ZM188.19 90.9Q181.89 90.9 176.805 87.93Q171.72 84.96 168.795 79.875Q165.87 74.79 165.87 68.58Q165.87 62.28 168.795 57.24Q171.72 52.2 176.805 49.275Q181.89 46.35 188.19 46.35Q193.14 46.35 197.37 48.195Q201.6 50.04 204.66 53.55L199.26 58.95Q197.28 56.61 194.445 55.395Q191.61 54.18 188.19 54.18Q184.14 54.18 180.99 56.025Q177.84 57.87 176.04 61.11Q174.24 64.35 174.24 68.58Q174.24 72.81 176.04 76.05Q177.84 79.29 180.99 81.18Q184.14 83.07 188.19 83.07Q191.61 83.07 194.445 81.855Q197.28 80.64 199.35 78.3L204.66 83.7Q201.69 87.12 197.415 89.01Q193.14 90.9 188.19 90.9ZM230.04 90.9Q224.19 90.9 219.42 87.975Q214.65 85.05 211.905 80.01Q209.16 74.97 209.16 68.67Q209.16 62.37 211.905 57.33Q214.65 52.29 219.375 49.32Q224.1 46.35 230.04 46.35Q234.9 46.35 238.725 48.375Q242.55 50.4 244.89 53.955Q247.23 57.51 247.5 62.19L247.5 75.06Q247.23 79.65 244.935 83.25Q242.64 86.85 238.815 88.875Q234.99 90.9 230.04 90.9ZM231.39 83.25Q237.42 83.25 241.11 79.155Q244.8 75.06 244.8 68.67Q244.8 64.26 243.135 60.975Q241.47 57.69 238.41 55.845Q235.35 54 231.3 54Q227.25 54 224.145 55.89Q221.04 57.78 219.285 61.065Q217.53 64.35 217.53 68.58Q217.53 72.9 219.285 76.185Q221.04 79.47 224.19 81.36Q227.34 83.25 231.39 83.25ZM244.26 90L244.26 78.48L245.79 68.04L244.26 57.69L244.26 47.25L252.45 47.25L252.45 90L244.26 90ZM294.48 90L294.48 65.07Q294.48 60.21 291.42 57.06Q288.36 53.91 283.5 53.91Q280.26 53.91 277.74 55.35Q275.22 56.79 273.78 59.31Q272.34 61.83 272.34 65.07L269.01 63.18Q269.01 58.32 271.17 54.54Q273.33 50.76 277.2 48.555Q281.07 46.35 285.93 46.35Q290.79 46.35 294.525 48.78Q298.26 51.21 300.42 55.125Q302.58 59.04 302.58 63.45L302.58 90L294.48 90ZM264.24 90L264.24 47.25L272.34 47.25L272.34 90L264.24 90Z" />
        </g>
      </g>
    </g>
    <g id="Group" transform="translate(732 95)" clip-path="url(#clip_1)">
      <g id="不可以" transform="translate(177 107)">
        <g transform="translate(0, 13.824)" id="不可以" fill="#FFFFFF">
          <path d="M3.312 18.72L44.688 18.72L44.688 22.416L3.312 22.416L3.312 18.72ZM26.832 32.736L29.52 30.432Q31.632 31.824 33.984 33.432Q36.336 35.04 38.592 36.768Q40.848 38.496 42.792 40.128Q44.736 41.76 46.08 43.152L43.152 45.936Q41.856 44.544 39.96 42.84Q38.064 41.136 35.856 39.36Q33.648 37.584 31.32 35.88Q28.992 34.176 26.832 32.736ZM25.968 20.016L29.856 21.408Q27.168 26.352 23.328 31.056Q19.488 35.76 14.76 39.744Q10.032 43.728 4.56 46.608Q4.32 46.128 3.864 45.552Q3.408 44.976 2.952 44.4Q2.496 43.824 2.112 43.44Q6.048 41.472 9.624 38.856Q13.2 36.24 16.272 33.144Q19.344 30.048 21.816 26.712Q24.288 23.376 25.968 20.016ZM22.032 29.568L25.92 25.728L25.92 25.776L25.92 59.424L22.032 59.424L22.032 29.568ZM83.856 19.824L87.6 19.824L87.6 54.336Q87.6 56.256 87.048 57.288Q86.496 58.32 85.056 58.8Q83.664 59.28 81.144 59.352Q78.624 59.424 75.024 59.424Q74.928 58.896 74.664 58.2Q74.4 57.504 74.112 56.784Q73.824 56.064 73.536 55.536Q75.456 55.632 77.304 55.656C78.536 55.672 79.608 55.68 80.52 55.68Q81.888 55.68 82.464 55.68Q83.232 55.584 83.544 55.32Q83.856 55.056 83.856 54.288L83.856 19.824ZM55.584 29.424L59.088 29.424L59.088 51.216L55.584 51.216L55.584 29.424ZM57.072 29.424L75.264 29.424L75.264 47.376L57.072 47.376L57.072 43.92L71.712 43.92L71.712 32.88L57.072 32.88L57.072 29.424ZM50.688 18.768L93.504 18.768L93.504 22.368L50.688 22.368L50.688 18.768ZM113.52 22.896L116.736 21.36Q118.32 23.088 119.808 25.152Q121.296 27.216 122.496 29.208Q123.696 31.2 124.368 32.88L120.912 34.704Q120.288 33.072 119.136 30.984Q117.984 28.896 116.496 26.784Q115.008 24.672 113.52 22.896ZM97.728 50.544Q100.176 49.584 103.416 48.24Q106.656 46.896 110.28 45.336Q113.904 43.776 117.504 42.24L118.32 45.744Q115.008 47.232 111.552 48.768Q108.096 50.304 104.88 51.72Q101.664 53.136 99.024 54.288L97.728 50.544ZM126.528 44.256L129.312 41.856Q130.992 43.584 132.888 45.504Q134.784 47.424 136.608 49.416Q138.432 51.408 140.016 53.232Q141.6 55.056 142.608 56.544L139.536 59.376Q138.528 57.888 137.04 56.016Q135.552 54.144 133.752 52.104Q131.952 50.064 130.104 48.024Q128.256 45.984 126.528 44.256ZM133.152 17.808L137.088 18.192Q136.176 26.544 134.496 33.072Q132.816 39.6 130.008 44.616Q127.2 49.632 122.856 53.328Q118.512 57.024 112.224 59.664Q111.984 59.28 111.456 58.68Q110.928 58.08 110.352 57.504Q109.776 56.928 109.344 56.544Q115.584 54.24 119.784 50.856Q123.984 47.472 126.672 42.744Q129.36 38.016 130.872 31.848Q132.384 25.68 133.152 17.808ZM103.536 17.952L107.232 17.808L108.096 49.536L104.4 49.68L103.536 17.952Z" />
        </g>
      </g>
      <g id="You-can't" transform="translate(177 0)">
        <g transform="translate(0, 23.400002)" id="You-can't" fill="#FFFFFF">
          <path d="M27.18 64.62L2.61 27.54L12.42 27.54L32.22 57.87L27.81 57.87L47.7 27.54L57.33 27.54L32.58 64.62L27.18 64.62ZM25.74 90L25.74 59.04L34.2 59.04L34.2 90L25.74 90ZM72.09 90.9Q65.79 90.9 60.75 87.93Q55.71 84.96 52.74 79.875Q49.77 74.79 49.77 68.49Q49.77 62.28 52.74 57.285Q55.71 52.29 60.75 49.32Q65.79 46.35 72.09 46.35Q78.3 46.35 83.385 49.275Q88.47 52.2 91.44 57.24Q94.41 62.28 94.41 68.49Q94.41 74.79 91.44 79.875Q88.47 84.96 83.385 87.93Q78.3 90.9 72.09 90.9ZM72.09 83.07Q76.14 83.07 79.29 81.18Q82.44 79.29 84.24 76.005Q86.04 72.72 86.04 68.49Q86.04 64.35 84.195 61.11Q82.35 57.87 79.245 56.025Q76.14 54.18 72.09 54.18Q68.04 54.18 64.89 56.025Q61.74 57.87 59.94 61.11Q58.14 64.35 58.14 68.49Q58.14 72.72 59.94 76.005Q61.74 79.29 64.89 81.18Q68.04 83.07 72.09 83.07ZM120.78 90.9Q115.47 90.9 111.285 88.515Q107.1 86.13 104.76 81.9Q102.42 77.67 102.42 72.09L102.42 47.25L110.52 47.25L110.52 71.73Q110.52 75.24 111.735 77.805Q112.95 80.37 115.29 81.72Q117.63 83.07 120.78 83.07Q125.55 83.07 128.25 80.055Q130.95 77.04 130.95 71.73L130.95 47.25L139.05 47.25L139.05 72.09Q139.05 77.67 136.71 81.9Q134.37 86.13 130.275 88.515Q126.18 90.9 120.78 90.9ZM188.19 90.9Q181.89 90.9 176.805 87.93Q171.72 84.96 168.795 79.875Q165.87 74.79 165.87 68.58Q165.87 62.28 168.795 57.24Q171.72 52.2 176.805 49.275Q181.89 46.35 188.19 46.35Q193.14 46.35 197.37 48.195Q201.6 50.04 204.66 53.55L199.26 58.95Q197.28 56.61 194.445 55.395Q191.61 54.18 188.19 54.18Q184.14 54.18 180.99 56.025Q177.84 57.87 176.04 61.11Q174.24 64.35 174.24 68.58Q174.24 72.81 176.04 76.05Q177.84 79.29 180.99 81.18Q184.14 83.07 188.19 83.07Q191.61 83.07 194.445 81.855Q197.28 80.64 199.35 78.3L204.66 83.7Q201.69 87.12 197.415 89.01Q193.14 90.9 188.19 90.9ZM230.04 90.9Q224.19 90.9 219.42 87.975Q214.65 85.05 211.905 80.01Q209.16 74.97 209.16 68.67Q209.16 62.37 211.905 57.33Q214.65 52.29 219.375 49.32Q224.1 46.35 230.04 46.35Q234.9 46.35 238.725 48.375Q242.55 50.4 244.89 53.955Q247.23 57.51 247.5 62.19L247.5 75.06Q247.23 79.65 244.935 83.25Q242.64 86.85 238.815 88.875Q234.99 90.9 230.04 90.9ZM231.39 83.25Q237.42 83.25 241.11 79.155Q244.8 75.06 244.8 68.67Q244.8 64.26 243.135 60.975Q241.47 57.69 238.41 55.845Q235.35 54 231.3 54Q227.25 54 224.145 55.89Q221.04 57.78 219.285 61.065Q217.53 64.35 217.53 68.58Q217.53 72.9 219.285 76.185Q221.04 79.47 224.19 81.36Q227.34 83.25 231.39 83.25ZM244.26 90L244.26 78.48L245.79 68.04L244.26 57.69L244.26 47.25L252.45 47.25L252.45 90L244.26 90ZM294.48 90L294.48 65.07Q294.48 60.21 291.42 57.06Q288.36 53.91 283.5 53.91Q280.26 53.91 277.74 55.35Q275.22 56.79 273.78 59.31Q272.34 61.83 272.34 65.07L269.01 63.18Q269.01 58.32 271.17 54.54Q273.33 50.76 277.2 48.555Q281.07 46.35 285.93 46.35Q290.79 46.35 294.525 48.78Q298.26 51.21 300.42 55.125Q302.58 59.04 302.58 63.45L302.58 90L294.48 90ZM264.24 90L264.24 47.25L272.34 47.25L272.34 90L264.24 90ZM312.48 47.7L310.59 25.74L319.5 25.74L317.61 47.7L312.48 47.7ZM338.94 90L338.94 29.34L347.04 29.34L347.04 90L338.94 90ZM328.41 54.63L328.41 47.25L357.57 47.25L357.57 54.63L328.41 54.63Z" />
        </g>
      </g>
      <g id="Cross" clip-path="url(#clip_2)" fill-opacity="1">
        <path d="M177 0L177 0L177 177L0 177L0 0L177 0Z" id="Cross" fill="none" stroke="none" />
        <path d="M25 151L151 25" id="Path" fill="none" fill-rule="evenodd" stroke="#FF4040" stroke-width="17" />
        <path d="M25 25L151 151" id="Path" fill="none" fill-rule="evenodd" stroke="#FF4040" stroke-width="17" />
      </g>
    </g>
    <g id="Group" transform="translate(1400 95)" clip-path="url(#clip_1)">
      <g id="先問" transform="translate(177 107)">
        <g transform="translate(0, 13.824)" id="先問" fill="#FFFFFF">
          <path d="M28.368 38.544L31.968 38.544L31.968 53.616Q31.968 54.672 32.376 54.984Q32.784 55.296 34.128 55.296Q34.464 55.296 35.28 55.296Q36.096 55.296 37.08 55.296Q38.064 55.296 38.952 55.296Q39.84 55.296 40.224 55.296Q41.136 55.296 41.592 54.792Q42.048 54.288 42.216 52.752Q42.384 51.216 42.48 48.096Q42.864 48.384 43.464 48.696Q44.064 49.008 44.688 49.224Q45.312 49.44 45.792 49.584Q45.6 53.232 45.096 55.224Q44.592 57.216 43.512 57.984Q42.432 58.752 40.512 58.752Q40.176 58.752 39.216 58.752Q38.256 58.752 37.104 58.752Q35.952 58.752 35.016 58.752Q34.08 58.752 33.744 58.752Q31.584 58.752 30.432 58.296Q29.28 57.84 28.824 56.712Q28.368 55.584 28.368 53.616L28.368 38.544ZM2.928 36L45.12 36L45.12 39.504L2.928 39.504L2.928 36ZM10.848 22.848L41.664 22.848L41.664 26.304L10.848 26.304L10.848 22.848ZM15.552 38.688L19.296 38.688Q18.96 42.336 18.168 45.552Q17.376 48.768 15.792 51.432Q14.208 54.096 11.496 56.208Q8.784 58.32 4.56 59.76Q4.368 59.28 3.96 58.728Q3.552 58.176 3.12 57.624Q2.688 57.072 2.256 56.736Q6.192 55.488 8.688 53.712Q11.184 51.936 12.576 49.608Q13.968 47.28 14.616 44.544Q15.264 41.808 15.552 38.688ZM11.808 16.464L15.456 17.232Q14.688 19.968 13.608 22.944Q12.528 25.92 11.112 28.728Q9.696 31.536 8.016 33.648Q7.632 33.36 7.056 33.048Q6.48 32.736 5.928 32.424Q5.376 32.112 4.896 31.968Q6.576 29.904 7.896 27.24Q9.216 24.576 10.224 21.768Q11.232 18.96 11.808 16.464ZM22.176 15.36L25.824 15.36L25.824 37.152L22.176 37.152L22.176 15.36ZM64.368 38.64L80.832 38.64L80.832 52.752L64.368 52.752L64.368 49.68L77.424 49.68L77.424 41.712L64.368 41.712L64.368 38.64ZM62.784 38.64L66.144 38.64L66.144 55.632L62.784 55.632L62.784 38.64ZM54.096 24.384L67.44 24.384L67.44 27.024L54.096 27.024L54.096 24.384ZM76.224 24.384L89.856 24.384L89.856 27.024L76.224 27.024L76.224 24.384ZM88.224 17.424L91.872 17.424L91.872 54.672Q91.872 56.496 91.392 57.432Q90.912 58.368 89.712 58.848Q88.512 59.328 86.376 59.424Q84.24 59.52 81.072 59.52Q81.024 58.992 80.808 58.32Q80.592 57.648 80.328 56.976Q80.064 56.304 79.776 55.824Q81.408 55.872 82.872 55.872Q84.336 55.872 85.464 55.872Q86.592 55.872 87.024 55.872Q87.696 55.824 87.96 55.56Q88.224 55.296 88.224 54.672L88.224 17.424ZM54.384 17.424L69.744 17.424L69.744 34.32L54.384 34.32L54.384 31.44L66.384 31.44L66.384 20.304L54.384 20.304L54.384 17.424ZM90.144 17.424L90.144 20.304L77.52 20.304L77.52 31.488L90.144 31.488L90.144 34.368L74.112 34.368L74.112 17.424L90.144 17.424ZM52.416 17.424L55.968 17.424L55.968 59.568L52.416 59.568L52.416 17.424Z" />
        </g>
      </g>
      <g id="Ask-first" transform="translate(177 0)">
        <g transform="translate(0, 23.400002)" id="Ask-first" fill="#FFFFFF">
          <path d="M2.79 90L28.35 27.54L34.47 27.54L59.94 90L50.76 90L29.79 37.17L32.94 37.17L11.79 90L2.79 90ZM14.94 75.87L14.94 68.49L47.79 68.49L47.79 75.87L14.94 75.87ZM82.17 90.9Q78.57 90.9 75.375 89.955Q72.18 89.01 69.48 87.255Q66.78 85.5 64.8 83.07L70.02 77.85Q72.36 80.73 75.42 82.125Q78.48 83.52 82.26 83.52Q86.04 83.52 88.11 82.215Q90.18 80.91 90.18 78.57Q90.18 76.23 88.515 74.925Q86.85 73.62 84.24 72.765Q81.63 71.91 78.705 71.055Q75.78 70.2 73.17 68.85Q70.56 67.5 68.895 65.16Q67.23 62.82 67.23 58.95Q67.23 55.08 69.12 52.245Q71.01 49.41 74.385 47.88Q77.76 46.35 82.53 46.35Q87.57 46.35 91.485 48.105Q95.4 49.86 97.92 53.37L92.7 58.59Q90.9 56.25 88.245 54.99Q85.59 53.73 82.26 53.73Q78.75 53.73 76.905 54.945Q75.06 56.16 75.06 58.32Q75.06 60.48 76.68 61.65Q78.3 62.82 80.955 63.63Q83.61 64.44 86.49 65.295Q89.37 66.15 91.98 67.59Q94.59 69.03 96.255 71.46Q97.92 73.89 97.92 77.85Q97.92 83.88 93.645 87.39Q89.37 90.9 82.17 90.9ZM134.37 90L114.39 68.13L134.19 47.25L144 47.25L121.95 70.29L122.31 65.61L144.81 90L134.37 90ZM107.01 90L107.01 25.74L115.11 25.74L115.11 90L107.01 90ZM176.67 90L176.67 40.86Q176.67 36.09 178.74 32.535Q180.81 28.98 184.455 26.91Q188.1 24.84 192.96 24.84Q196.65 24.84 199.35 26.1Q202.05 27.36 204.3 29.79L198.99 35.01Q197.82 33.75 196.38 33.075Q194.94 32.4 192.87 32.4Q189 32.4 186.885 34.65Q184.77 36.9 184.77 40.86L184.77 90L176.67 90ZM166.14 54.63L166.14 47.25L198.36 47.25L198.36 54.63L166.14 54.63ZM206.55 90L206.55 47.25L214.65 47.25L214.65 90L206.55 90ZM210.6 38.7Q208.35 38.7 206.91 37.215Q205.47 35.73 205.47 33.48Q205.47 31.32 206.91 29.835Q208.35 28.35 210.6 28.35Q212.85 28.35 214.29 29.835Q215.73 31.32 215.73 33.48Q215.73 35.73 214.29 37.215Q212.85 38.7 210.6 38.7ZM226.62 90L226.62 47.25L234.72 47.25L234.72 90L226.62 90ZM234.72 65.61L231.66 64.26Q231.66 56.07 235.44 51.21Q239.22 46.35 246.33 46.35Q249.57 46.35 252.18 47.475Q254.79 48.6 257.04 51.21L251.73 56.7Q250.38 55.26 248.76 54.63Q247.14 54 244.98 54Q240.48 54 237.6 56.88Q234.72 59.76 234.72 65.61ZM275.4 90.9Q271.8 90.9 268.605 89.955Q265.41 89.01 262.71 87.255Q260.01 85.5 258.03 83.07L263.25 77.85Q265.59 80.73 268.65 82.125Q271.71 83.52 275.49 83.52Q279.27 83.52 281.34 82.215Q283.41 80.91 283.41 78.57Q283.41 76.23 281.745 74.925Q280.08 73.62 277.47 72.765Q274.86 71.91 271.935 71.055Q269.01 70.2 266.4 68.85Q263.79 67.5 262.125 65.16Q260.46 62.82 260.46 58.95Q260.46 55.08 262.35 52.245Q264.24 49.41 267.615 47.88Q270.99 46.35 275.76 46.35Q280.8 46.35 284.715 48.105Q288.63 49.86 291.15 53.37L285.93 58.59Q284.13 56.25 281.475 54.99Q278.82 53.73 275.49 53.73Q271.98 53.73 270.135 54.945Q268.29 56.16 268.29 58.32Q268.29 60.48 269.91 61.65Q271.53 62.82 274.185 63.63Q276.84 64.44 279.72 65.295Q282.6 66.15 285.21 67.59Q287.82 69.03 289.485 71.46Q291.15 73.89 291.15 77.85Q291.15 83.88 286.875 87.39Q282.6 90.9 275.4 90.9ZM306.81 90L306.81 29.34L314.91 29.34L314.91 90L306.81 90ZM296.28 54.63L296.28 47.25L325.44 47.25L325.44 54.63L296.28 54.63Z" />
        </g>
      </g>
      <g id="Triangle" clip-path="url(#clip_2)" fill-opacity="1">
        <path d="M177 0L177 0L177 177L0 177L0 0L177 0Z" id="Triangle" fill="none" stroke="none" />
        <path d="M88 25L151 151L25 151L88 25Z" id="Triangle" fill="none" fill-rule="evenodd" stroke="#FFD000" stroke-width="17" stroke-linejoin="round" />
      </g>
    </g>
  </g>
</svg>